<?xml version="1.0" encoding="utf-8"?>
<!-- Generator: Adobe Illustrator 24.1.2, SVG Export Plug-In . SVG Version: 6.00 Build 0)  -->
<svg version="1.1" xmlns="http://www.w3.org/2000/svg" xmlns:xlink="http://www.w3.org/1999/xlink" x="0px" y="0px"
	 viewBox="0 0 423.6 590.47" style="enable-background:new 0 0 423.6 590.47;" xml:space="preserve">
<style type="text/css">
	.st0{display:none;}
	.st1{display:inline;fill:#A2DAF8;}
	.st2{fill:#FFCC00;}
	.st3{fill:#E30613;}
	.st4{fill:#008BD2;}
	.st5{fill:#A2DAF8;}
	.st6{fill:#FFED00;}
	.st7{fill:#009640;}
	.st8{fill:#FFFFFF;}
	.st9{fill-rule:evenodd;clip-rule:evenodd;fill:#D0D0D0;}
	.st10{fill-rule:evenodd;clip-rule:evenodd;fill:#E30613;}
	.st11{fill-rule:evenodd;clip-rule:evenodd;fill:#A1A09F;}
	.st12{fill-rule:evenodd;clip-rule:evenodd;fill:#D1D0D1;}
	.st13{fill:#787878;}
	.st14{fill-rule:evenodd;clip-rule:evenodd;fill:#646464;}
</style>
<g id="Camada_2" class="st0">
	<circle class="st1" cx="2887.25" cy="84.43" r="116.81"/>
	<circle class="st1" cx="2891.98" cy="32.28" r="39.21"/>
	<circle class="st1" cx="2832.2" cy="39.39" r="39.21"/>
	<circle class="st1" cx="2868.11" cy="9.2" r="45.05"/>
	<circle class="st1" cx="2890.17" cy="39.39" r="39.21"/>
	<circle class="st1" cx="2906.45" cy="55.61" r="39.21"/>
	<circle class="st1" cx="2904.72" cy="57.58" r="16.69"/>
	<circle class="st1" cx="2882.91" cy="52.77" r="16.69"/>
	<circle class="st1" cx="2861.18" cy="38.25" r="16.69"/>
</g>
<g id="Camada_1">
	<g>
		<path class="st2" d="M0,0v378.67c0,116.97,94.83,211.8,211.8,211.8c116.97,0,211.8-94.83,211.8-211.8V0H0z"/>
		<g>
			<rect x="12.84" y="12.84" class="st3" width="397.93" height="51.35"/>
			<rect x="12.84" y="77.02" class="st4" width="397.93" height="51.35"/>
		</g>
		<path class="st5" d="M410.75,141.19v237.47c0,33.37-8.2,64.76-22.69,92.38c-2.58,4.94-5.34,9.69-8.33,14.35
			c-5.8,9.15-12.36,17.8-19.56,25.81c-3.53,4.03-7.25,7.83-11.14,11.55c-35.73,34.01-84,54.88-137.21,54.88
			c-53.16,0-101.48-20.88-137.21-54.88c-3.89-3.67-7.61-7.52-11.18-11.5c-7.2-8.06-13.72-16.71-19.52-25.86
			c-3.03-4.66-5.8-9.42-8.38-14.35c-14.49-27.62-22.69-59-22.69-92.38V141.19H410.75z"/>
		<g>
			<g>
				<path class="st6" d="M410.75,186.61L257.19,340.17l130.87,130.87c-10.14,19.34-23.37,36.77-39.03,51.71L211.81,385.54
					L74.6,522.75c-15.67-14.9-28.94-32.38-39.08-51.71L166.4,340.17L12.84,186.61v-45.42h45.37l153.6,153.6l153.6-153.6h45.33
					V186.61z"/>
				<path class="st2" d="M349.02,522.9l-0.07-0.08L211.81,385.69L74.61,522.9l-0.08-0.07c-15.83-15.05-28.99-32.46-39.1-51.74
					l-0.04-0.07l0.06-0.06l130.79-130.79L12.73,186.66v-45.57h45.53l0.03,0.03l153.53,153.53l153.56-153.56h45.48v45.57l-0.03,0.03
					L257.34,340.17l130.85,130.85l-0.04,0.07c-10.1,19.25-23.24,36.65-39.06,51.74L349.02,522.9z M35.66,471.06
					c10.08,19.2,23.18,36.54,38.95,51.54l137.21-137.21L349.03,522.6c15.75-15.04,28.84-32.38,38.9-51.54L257.04,340.17l153.6-153.6
					V141.3h-45.18L211.81,294.95l-0.08-0.08L58.17,141.3H12.95v45.27l153.6,153.6l-0.08,0.08L35.66,471.06z"/>
			</g>
			<g>
				<path class="st7" d="M410.75,163.92L234.5,340.17l145.23,145.23c-5.8,9.15-12.36,17.8-19.56,25.81L211.81,362.86L63.42,511.25
					c-7.2-8.06-13.72-16.71-19.52-25.86l145.22-145.23L12.84,163.88v-22.69h22.69l176.29,176.29L388.1,141.19h22.64V163.92z"/>
				<path class="st2" d="M63.42,511.41l-0.08-0.08c-7.16-8.01-13.73-16.72-19.53-25.87l-0.05-0.07l0.06-0.06l145.15-145.15
					L12.73,163.92v-22.84h22.84l0.03,0.03l176.21,176.21l176.24-176.25h22.79v22.89l-0.03,0.03L234.65,340.17l145.21,145.21
					l-0.05,0.07c-5.76,9.09-12.34,17.78-19.57,25.83l-0.08,0.08l-0.08-0.08L211.81,363.01L63.42,511.41z M44.04,485.41
					c5.76,9.08,12.28,17.73,19.38,25.68L211.81,362.7l148.35,148.34c7.17-7.99,13.71-16.62,19.43-25.64L234.35,340.17l176.29-176.29
					V141.3h-22.49L211.81,317.63L35.48,141.3H12.95v22.53l176.33,176.33l-0.08,0.08L44.04,485.41z"/>
			</g>
		</g>
		<path class="st2" d="M401.43,340.15l-7.34-16.8c6.29-15.44,6.93-28.85,1.77-38.81c-4.57-8.92-13.4-15.85-26.72-17.98
			c-10.32-1.63-25.13,0.91-36.63,14.94c-2.4,2.58-5.43,5.8-6.48,5.43c-0.32-0.09-0.91-0.77-1.18-4.03l-0.09-0.72l-0.72,0.14
			c-9.15,1.77-13.13,7.47-11.46,16.17c0.68,3.49,3.76,7.83,6.39,9.65c5.71,3.8,14.63,3.76,23.91-0.14c5.21,0.27,7.2,1.86,7.2,2.76
			c0,0.5-0.59,1.13-1.86,1.72c-1.27,0.59-3.26,1.04-6.16,1.22h-91.74h-12.04v-12.03v-91.74c0.14-2.9,0.63-4.94,1.22-6.2
			c0.54-1.27,1.22-1.81,1.72-1.81c0.91,0,2.45,1.99,2.72,7.2c-3.85,9.24-3.94,18.16-0.09,23.91c1.77,2.63,6.11,5.71,9.65,6.34
			c8.65,1.68,14.36-2.26,16.17-11.41l0.14-0.77l-0.77-0.05c-3.22-0.27-3.89-0.86-3.98-1.18c-0.41-1.09,2.85-4.08,5.39-6.48
			c14.08-11.55,16.62-26.35,14.99-36.63c-2.13-13.31-9.1-22.14-17.98-26.72c-9.96-5.16-23.37-4.53-38.81,1.77l-16.8-7.38
			l-16.85,7.38c-15.4-6.29-28.8-6.93-38.76-1.77c-8.92,4.57-15.89,13.4-17.98,26.72c-1.68,10.28,0.91,25.09,14.94,36.63
			c2.58,2.4,5.8,5.39,5.43,6.48c-0.14,0.32-0.77,0.91-4.03,1.18l-0.77,0.05l0.14,0.77c1.81,9.15,7.52,13.09,16.17,11.41
			c3.53-0.63,7.88-3.71,9.65-6.34c3.85-5.75,3.8-14.67-0.09-23.91c0.27-5.21,1.81-7.2,2.76-7.2c0.5,0,1.13,0.54,1.72,1.81
			c0.54,1.27,1.04,3.31,1.18,6.2v91.74v12.03h-12.05H81.54c-2.9-0.18-4.89-0.63-6.16-1.22c-1.27-0.59-1.81-1.22-1.81-1.72
			c0-0.91,1.95-2.49,7.2-2.76c9.24,3.89,18.16,3.94,23.86,0.14c2.67-1.81,5.71-6.16,6.38-9.65c1.68-8.69-2.26-14.4-11.41-16.17
			l-0.77-0.14l-0.09,0.72c-0.27,3.26-0.82,3.94-1.13,4.03c-1.09,0.36-4.08-2.85-6.48-5.43c-11.55-14.04-26.36-16.57-36.68-14.94
			c-13.31,2.13-22.1,9.06-26.72,17.98c-5.12,9.96-4.48,23.37,1.81,38.81l-7.38,16.8l7.38,16.8c-6.29,15.44-6.93,28.85-1.81,38.81
			c4.62,8.92,13.4,15.85,26.72,17.98c10.32,1.63,25.13-0.91,36.68-14.94c2.4-2.58,5.39-5.8,6.48-5.43c0.32,0.09,0.86,0.77,1.13,4.03
			l0.09,0.72l0.77-0.14c9.15-1.77,13.09-7.47,11.41-16.17c-0.68-3.49-3.71-7.83-6.38-9.65c-5.71-3.8-14.63-3.76-23.86,0.14
			c-5.25-0.27-7.2-1.86-7.2-2.76c0-0.5,0.54-1.13,1.81-1.72c1.27-0.59,3.26-1.04,6.16-1.22h91.74h12.05v12.02v91.74
			c-0.14,2.9-0.63,4.94-1.18,6.2c-0.59,1.27-1.22,1.81-1.72,1.81c-0.95,0-2.49-1.99-2.76-7.2c3.89-9.24,3.94-18.16,0.09-23.91
			c-1.77-2.63-6.11-5.71-9.65-6.34c-8.65-1.68-14.35,2.26-16.17,11.41l-0.14,0.77l0.77,0.05c3.26,0.27,3.89,0.86,4.03,1.18
			c0.36,1.09-2.85,4.08-5.43,6.48c-14.04,11.55-16.62,26.36-14.94,36.63c2.08,13.31,9.06,22.14,17.98,26.72
			c9.96,5.16,23.37,4.53,38.76-1.77l16.85,7.34l16.8-7.34c15.44,6.29,28.85,6.93,38.81,1.77c8.88-4.57,15.85-13.4,17.98-26.72
			c1.63-10.28-0.91-25.09-14.99-36.63c-2.54-2.4-5.8-5.39-5.39-6.48c0.09-0.32,0.77-0.91,3.98-1.18l0.77-0.05l-0.14-0.77
			c-1.81-9.15-7.52-13.09-16.17-11.41c-3.53,0.63-7.88,3.71-9.65,6.34c-3.85,5.75-3.76,14.67,0.09,23.91
			c-0.27,5.21-1.81,7.2-2.72,7.2c-0.5,0-1.18-0.54-1.72-1.81c-0.59-1.27-1.09-3.31-1.22-6.2v-91.74v-12.02h12.04h91.74
			c2.9,0.18,4.89,0.63,6.16,1.22c1.27,0.59,1.86,1.22,1.86,1.72c0,0.91-1.99,2.49-7.2,2.76c-9.28-3.89-18.2-3.94-23.91-0.14
			c-2.63,1.81-5.71,6.16-6.39,9.65c-1.68,8.69,2.31,14.4,11.46,16.17l0.72,0.14l0.09-0.72c0.27-3.26,0.86-3.94,1.18-4.03
			c1.04-0.36,4.08,2.85,6.48,5.43c11.5,14.04,26.31,16.57,36.63,14.94c13.31-2.13,22.14-9.06,26.72-17.98
			c5.16-9.96,4.53-23.37-1.77-38.81L401.43,340.15z M192.5,200.06c-2.04-4.57-5.8-7.29-10.05-7.29c-1.86,0-11.09,0.77-11.86,15.89
			l-0.14,2.08l0.82,1.9c3.17,7.56,2.49,12.95,0.95,15.26c-0.63,0.86-2.81,2.31-3.8,2.49c-0.68,0.18-1.36,0.23-1.9,0.23
			c0.27-0.5,0.54-1.04,0.72-1.68c2.31-6.66-2.76-11.41-7.7-16.03l-0.32-0.32l-0.23-0.18c-12.95-10.64-12.54-23.23-11.73-28.17
			c1.49-9.42,6.02-16.35,13.13-20.02c3.12-1.63,6.88-2.45,11.14-2.45c5.89,0,12.63,1.54,20.02,4.57l3.58,1.45l9.96-4.39l6.75-2.99
			l6.7,2.99l9.96,4.39l3.58-1.45c7.43-3.03,14.17-4.57,20.06-4.57c4.26,0,7.97,0.82,11.09,2.45c7.11,3.67,11.64,10.6,13.18,20.02
			c0.77,4.94,1.18,17.52-11.77,28.17l-0.23,0.18l-0.32,0.32c-4.94,4.62-10.01,9.37-7.7,16.03c0.23,0.63,0.45,1.18,0.77,1.68
			c-0.59,0-1.22-0.05-1.95-0.23c-0.95-0.18-3.17-1.63-3.8-2.49c-1.54-2.31-2.22-7.7,0.95-15.26l0.82-1.9l-0.09-2.08
			c-0.82-15.12-10.05-15.89-11.86-15.89c-4.3,0-8.06,2.72-10.1,7.29c-1.09,2.45-1.77,5.62-1.95,9.42l-0.05,0.23v91.97v12.03h-34.64
			v-12.03v-92.2C194.31,205.67,193.63,202.51,192.5,200.06z M229.13,322.8v34.69h-34.64V322.8H229.13z M173.29,357.49h-92.2
			c-3.76,0.18-6.97,0.86-9.42,1.99c-4.53,1.99-7.25,5.75-7.25,10.05c0,1.86,0.77,11.09,15.85,11.86l2.08,0.09l1.95-0.77
			c7.56-3.21,12.95-2.49,15.26-0.95c0.82,0.63,2.31,2.81,2.49,3.76c0.14,0.72,0.23,1.36,0.23,1.95c-0.5-0.27-1.09-0.54-1.68-0.77
			c-6.66-2.31-11.41,2.81-16.03,7.7l-0.32,0.36l-0.18,0.23c-10.64,12.95-23.23,12.5-28.17,11.73c-9.46-1.49-16.39-6.07-20.06-13.18
			c-1.59-3.12-2.4-6.84-2.4-11.09c0-5.89,1.54-12.63,4.53-20.02l1.49-3.58l-4.44-10.01l-2.94-6.7l2.94-6.7l4.44-10.01l-1.49-3.58
			c-2.99-7.38-4.53-14.13-4.53-20.02c0-4.26,0.82-7.97,2.4-11.09c3.67-7.11,10.6-11.68,20.06-13.18
			c4.94-0.77,17.52-1.22,28.17,11.73l0.18,0.23l0.32,0.36c4.62,4.89,9.37,10.01,16.03,7.7c0.59-0.23,1.18-0.5,1.68-0.77
			c0,0.59-0.09,1.22-0.23,1.95c-0.18,0.95-1.68,3.12-2.49,3.76c-2.31,1.54-7.7,2.26-15.26-0.95l-1.95-0.77l-2.08,0.09
			c-15.08,0.77-15.85,10.01-15.85,11.86c0,4.3,2.72,8.06,7.25,10.05c2.45,1.13,5.66,1.81,9.42,1.99h92.2h12.05v34.69H173.29z
			 M229.17,470.81c0.18,3.8,0.86,6.97,1.95,9.42c2.04,4.57,5.8,7.25,10.1,7.25c1.81,0,11.05-0.72,11.86-15.85l0.09-2.08l-0.82-1.9
			c-3.17-7.56-2.49-12.95-0.95-15.26c0.63-0.86,2.85-2.31,3.8-2.49c0.72-0.18,1.36-0.23,1.95-0.23c-0.32,0.5-0.54,1.04-0.77,1.68
			c-2.31,6.66,2.76,11.41,7.7,16.03l0.32,0.32l0.23,0.18c12.95,10.64,12.54,23.23,11.77,28.17c-1.54,9.42-6.07,16.35-13.18,20.02
			c-3.12,1.63-6.84,2.45-11.09,2.45c-5.89,0-12.63-1.54-20.06-4.57l-3.58-1.45l-9.96,4.39l-6.7,2.99l-6.75-2.99l-9.96-4.39
			l-3.58,1.45c-7.38,3.03-14.13,4.57-20.02,4.57c-4.26,0-8.02-0.82-11.14-2.45c-7.11-3.67-11.64-10.6-13.13-20.02
			c-0.82-4.94-1.22-17.52,11.73-28.17l0.23-0.18l0.32-0.32c4.94-4.62,10.01-9.37,7.7-16.03c-0.18-0.63-0.45-1.18-0.72-1.68
			c0.54,0,1.22,0.05,1.9,0.23c1,0.18,3.17,1.63,3.8,2.49c1.54,2.31,2.22,7.7-0.95,15.26l-0.82,1.9l0.14,2.08
			c0.77,15.12,10.01,15.85,11.86,15.85c4.26,0,8.02-2.67,10.05-7.25c1.13-2.45,1.81-5.62,1.99-9.42v-92.2v-12.02h34.64v12.02v91.97
			L229.17,470.81z M385.62,360.44c3.03,7.38,4.53,14.13,4.53,20.02c0,4.26-0.82,7.97-2.4,11.09c-3.67,7.11-10.6,11.68-20.06,13.18
			c-4.89,0.77-17.48,1.22-28.12-11.73l-0.23-0.23l-0.27-0.36c-4.62-4.89-9.42-10.01-16.08-7.7c-0.59,0.23-1.13,0.5-1.63,0.77
			c0-0.59,0.05-1.22,0.18-1.95c0.23-0.95,1.68-3.12,2.54-3.76c2.31-1.54,7.7-2.26,15.22,0.95l1.95,0.77l2.08-0.09
			c15.08-0.77,15.85-10.01,15.85-11.86c0-4.3-2.72-8.06-7.25-10.05c-2.45-1.13-5.66-1.81-9.42-1.99h-92.2h-12.04V322.8h12.04h92.2
			c3.76-0.18,6.97-0.86,9.42-1.99c4.53-1.99,7.25-5.75,7.25-10.05c0-1.86-0.77-11.09-15.85-11.86l-2.08-0.09l-1.95,0.77
			c-7.52,3.22-12.91,2.49-15.22,0.95c-0.86-0.63-2.31-2.81-2.54-3.76c-0.14-0.72-0.18-1.36-0.18-1.95c0.5,0.27,1.04,0.54,1.63,0.77
			c6.66,2.31,11.46-2.81,16.08-7.7l0.27-0.36l0.23-0.23c10.64-12.95,23.23-12.5,28.12-11.73c9.46,1.49,16.39,6.07,20.06,13.18
			c1.58,3.12,2.4,6.84,2.4,11.09c0,5.89-1.49,12.63-4.53,20.02l-1.45,3.58l4.39,10.01l2.94,6.7l-2.94,6.7l-4.39,10.01L385.62,360.44
			z"/>
		<path class="st8" d="M384.17,356.86l4.39-10.01l2.94-6.7l-2.94-6.7l-4.39-10.01l1.45-3.58c3.03-7.38,4.53-14.13,4.53-20.02
			c0-4.26-0.82-7.97-2.4-11.09c-3.67-7.11-10.6-11.68-20.06-13.18c-4.89-0.77-17.48-1.22-28.12,11.73l-0.23,0.23l-0.27,0.36
			c-4.62,4.89-9.42,10.01-16.08,7.7c-0.59-0.23-1.13-0.5-1.63-0.77c0,0.59,0.05,1.22,0.18,1.95c0.23,0.95,1.68,3.12,2.54,3.76
			c2.31,1.54,7.7,2.26,15.22-0.95l1.95-0.77l2.08,0.09c15.08,0.77,15.85,10.01,15.85,11.86c0,4.3-2.72,8.06-7.25,10.05
			c-2.45,1.13-5.66,1.81-9.42,1.99H241.17h-12.04v-12.03V209.71l0.05-0.23c0.18-3.8,0.86-6.97,1.95-9.42
			c2.04-4.57,5.8-7.29,10.1-7.29c1.81,0,11.05,0.77,11.86,15.89l0.09,2.08l-0.82,1.9c-3.17,7.56-2.49,12.95-0.95,15.26
			c0.63,0.86,2.85,2.31,3.8,2.49c0.72,0.18,1.36,0.23,1.95,0.23c-0.32-0.5-0.54-1.04-0.77-1.68c-2.31-6.66,2.76-11.41,7.7-16.03
			l0.32-0.32l0.23-0.18c12.95-10.64,12.54-23.23,11.77-28.17c-1.54-9.42-6.07-16.35-13.18-20.02c-3.12-1.63-6.84-2.45-11.09-2.45
			c-5.89,0-12.63,1.54-20.06,4.57l-3.58,1.45l-9.96-4.39l-6.7-2.99l-6.75,2.99l-9.96,4.39l-3.58-1.45
			c-7.38-3.03-14.13-4.57-20.02-4.57c-4.26,0-8.02,0.82-11.14,2.45c-7.11,3.67-11.64,10.6-13.13,20.02
			c-0.82,4.94-1.22,17.52,11.73,28.17l0.23,0.18l0.32,0.32c4.94,4.62,10.01,9.37,7.7,16.03c-0.18,0.63-0.45,1.18-0.72,1.68
			c0.54,0,1.22-0.05,1.9-0.23c1-0.18,3.17-1.63,3.8-2.49c1.54-2.31,2.22-7.7-0.95-15.26l-0.82-1.9l0.14-2.08
			c0.77-15.12,10.01-15.89,11.86-15.89c4.26,0,8.02,2.72,10.05,7.29c1.13,2.45,1.81,5.62,1.99,9.42v101.3v12.03h-12.05H81.09
			c-3.76-0.18-6.97-0.86-9.42-1.99c-4.53-1.99-7.25-5.75-7.25-10.05c0-1.86,0.77-11.09,15.85-11.86l2.08-0.09l1.95,0.77
			c7.56,3.22,12.95,2.49,15.26,0.95c0.82-0.63,2.31-2.81,2.49-3.76c0.14-0.72,0.23-1.36,0.23-1.95c-0.5,0.27-1.09,0.54-1.68,0.77
			c-6.66,2.31-11.41-2.81-16.03-7.7l-0.32-0.36l-0.18-0.23c-10.64-12.95-23.23-12.5-28.17-11.73c-9.46,1.49-16.39,6.07-20.06,13.18
			c-1.59,3.12-2.4,6.84-2.4,11.09c0,5.89,1.54,12.63,4.53,20.02l1.49,3.58l-4.44,10.01l-2.94,6.7l2.94,6.7l4.44,10.01l-1.49,3.58
			c-2.99,7.38-4.53,14.13-4.53,20.02c0,4.26,0.82,7.97,2.4,11.09c3.67,7.11,10.6,11.68,20.06,13.18
			c4.94,0.77,17.52,1.22,28.17-11.73l0.18-0.23l0.32-0.36c4.62-4.89,9.37-10.01,16.03-7.7c0.59,0.23,1.18,0.5,1.68,0.77
			c0-0.59-0.09-1.22-0.23-1.95c-0.18-0.95-1.68-3.12-2.49-3.76c-2.31-1.54-7.7-2.26-15.26,0.95l-1.95,0.77l-2.08-0.09
			c-15.08-0.77-15.85-10.01-15.85-11.86c0-4.3,2.72-8.06,7.25-10.05c2.45-1.13,5.66-1.81,9.42-1.99h101.35h12.05v12.02v101.3
			c-0.18,3.8-0.86,6.97-1.99,9.42c-2.04,4.57-5.8,7.25-10.05,7.25c-1.86,0-11.09-0.72-11.86-15.85l-0.14-2.08l0.82-1.9
			c3.17-7.56,2.49-12.95,0.95-15.26c-0.63-0.86-2.81-2.31-3.8-2.49c-0.68-0.18-1.36-0.23-1.9-0.23c0.27,0.5,0.54,1.04,0.72,1.68
			c2.31,6.66-2.76,11.41-7.7,16.03l-0.32,0.32l-0.23,0.18c-12.95,10.64-12.54,23.23-11.73,28.17c1.49,9.42,6.02,16.35,13.13,20.02
			c3.12,1.63,6.88,2.45,11.14,2.45c5.89,0,12.63-1.54,20.02-4.57l3.58-1.45l9.96,4.39l6.75,2.99l6.7-2.99l9.96-4.39l3.58,1.45
			c7.43,3.03,14.17,4.57,20.06,4.57c4.26,0,7.97-0.82,11.09-2.45c7.11-3.67,11.64-10.6,13.18-20.02
			c0.77-4.94,1.18-17.52-11.77-28.17l-0.23-0.18l-0.32-0.32c-4.94-4.62-10.01-9.37-7.7-16.03c0.23-0.63,0.45-1.18,0.77-1.68
			c-0.59,0-1.22,0.05-1.95,0.23c-0.95,0.18-3.17,1.63-3.8,2.49c-1.54,2.31-2.22,7.7,0.95,15.26l0.82,1.9l-0.09,2.08
			c-0.82,15.12-10.05,15.85-11.86,15.85c-4.3,0-8.06-2.67-10.1-7.25c-1.09-2.45-1.77-5.62-1.95-9.42l-0.05-0.23V369.51v-12.02h12.04
			h101.34c3.76,0.18,6.97,0.86,9.42,1.99c4.53,1.99,7.25,5.75,7.25,10.05c0,1.86-0.77,11.09-15.85,11.86l-2.08,0.09l-1.95-0.77
			c-7.52-3.21-12.91-2.49-15.22-0.95c-0.86,0.63-2.31,2.81-2.54,3.76c-0.14,0.72-0.18,1.36-0.18,1.95c0.5-0.27,1.04-0.54,1.63-0.77
			c6.66-2.31,11.46,2.81,16.08,7.7l0.27,0.36l0.23,0.23c10.64,12.95,23.23,12.5,28.12,11.73c9.46-1.49,16.39-6.07,20.06-13.18
			c1.58-3.12,2.4-6.84,2.4-11.09c0-5.89-1.49-12.63-4.53-20.02L384.17,356.86z"/>
		<path class="st9" d="M304.96,309.92l-64.39-9.37l-28.76-58.33l-28.8,58.33l-64.35,9.37l46.55,45.42l-11,64.08l57.6-30.25
			l57.56,30.25l-11-64.08L304.96,309.92z M260.27,406.92l-48.45-25.49l-48.5,25.49l9.28-53.98l-39.22-38.22l54.2-7.88l24.23-49.13
			l24.23,49.13l54.2,7.88l-39.22,38.22L260.27,406.92z"/>
		<polygon class="st10" points="251.03,352.94 260.27,406.92 211.81,381.42 163.32,406.92 172.6,352.94 133.38,314.72 
			187.59,306.84 211.81,257.71 236.04,306.84 290.25,314.72 		"/>
		<path class="st11" d="M243.11,358.28c0,0-8.33,11.14-31.34,11.14c-22.96,0-31.29-11.14-31.29-11.14s10.78,4.57,31.29,4.57
			C232.33,362.86,243.11,358.28,243.11,358.28z"/>
		<g>
			<path class="st12" d="M222.91,337.95c0,9.83,3.17,20.2,3.17,20.2s-3.71,1.31-10.55,1.68v-11.19c0,0,0-4.3-3.71-4.35h-0.05
				c-3.71,0.05-3.71,4.35-3.71,4.35v11.19c-6.84-0.36-10.55-1.68-10.55-1.68s3.17-10.37,3.17-20.2c0-3.03-0.32-6.16-0.82-9.1
				c-1.4-8.29-4.03-15.12-4.03-15.12s4.48-1.22,8.29-1.81l1.27,8.83c0,0,1.45-0.14,2.58-0.14l-0.32-9.19
				c1.31-0.09,2.67-0.18,4.12-0.18c1.45,0,2.85,0.09,4.17,0.18l-0.32,9.19c1.13,0,2.58,0.14,2.58,0.14l1.27-8.83
				c3.8,0.59,8.29,1.81,8.29,1.81s-2.63,6.84-4.03,15.12C223.23,331.79,222.91,334.92,222.91,337.95z"/>
			<path class="st13" d="M215.4,359.95v-11.32c0-0.17-0.04-4.18-3.59-4.22h-0.04c-3.55,0.04-3.59,4.05-3.59,4.22v11.32l-0.13-0.01
				c-6.78-0.36-10.55-1.67-10.59-1.68l-0.11-0.04l0.03-0.11c0.03-0.1,3.16-10.47,3.16-20.16c0-2.83-0.27-5.89-0.81-9.08
				c-1.39-8.18-4-15.03-4.02-15.1l-0.05-0.13l0.13-0.04c0.04-0.01,4.53-1.23,8.3-1.81l0.13-0.02l0.02,0.13l1.25,8.71
				c0.35-0.03,1.43-0.12,2.34-0.13l-0.32-9.18l0.12-0.01c1.43-0.1,2.73-0.18,4.13-0.18c1.44,0,2.85,0.09,4.17,0.18l0.12,0.01l0,0.12
				l-0.31,9.06c0.91,0.01,1.99,0.09,2.35,0.13l1.27-8.84l0.13,0.02c3.77,0.58,8.26,1.8,8.3,1.81l0.13,0.04l-0.05,0.13
				c-0.03,0.07-2.64,6.92-4.02,15.1c-0.54,3.19-0.81,6.25-0.81,9.08c0,9.7,3.13,20.06,3.16,20.16l0.04,0.11l-0.11,0.04
				c-0.04,0.01-3.81,1.32-10.59,1.68L215.4,359.95z M197.66,358.07c0.67,0.21,4.26,1.29,10.27,1.62v-11.05
				c0-0.04,0.04-4.43,3.84-4.47h0.05c3.79,0.05,3.84,4.43,3.84,4.47v11.05c6.01-0.33,9.6-1.41,10.27-1.62
				c-0.35-1.18-3.14-10.94-3.14-20.12c0-2.85,0.28-5.92,0.82-9.12c1.28-7.58,3.62-14.03,3.99-15.02c-0.76-0.2-4.65-1.22-8.02-1.75
				l-1.27,8.82l-0.12-0.01c-0.01,0-1.46-0.13-2.57-0.13h-0.13l0-0.13l0.31-9.07c-1.29-0.09-2.65-0.17-4.04-0.17
				c-1.35,0-2.61,0.08-3.99,0.17l0.32,9.2h-0.13c-1.11,0-2.56,0.13-2.57,0.13l-0.12,0.01l-0.02-0.12l-1.25-8.71
				c-3.36,0.53-7.25,1.55-8.02,1.75c0.37,0.99,2.7,7.43,3.99,15.02c0.54,3.2,0.82,6.27,0.82,9.12
				C200.8,347.12,198.01,356.89,197.66,358.07z"/>
		</g>
		<g>
			<path class="st11" d="M200.67,337.95c0,9.83-3.17,20.2-3.17,20.2l-9.33-1.31c0,0,0.36-1,0.86-2.72
				c0.86-2.94,2.13-7.97,2.63-13.59c0.82-8.79-3.35-18.57-3.35-18.57s3.17-1.09,7.92-1.77l1.99,8.74c0,0,0.5,0,1.63-0.09
				C200.36,331.79,200.67,334.92,200.67,337.95z"/>
			<path class="st13" d="M197.59,358.28l-0.11-0.01l-9.48-1.33l0.05-0.15c0-0.01,0.37-1.01,0.86-2.71
				c0.93-3.18,2.14-8.12,2.62-13.56c0.8-8.65-3.3-18.41-3.34-18.51l-0.05-0.12l0.13-0.04c0.03-0.01,3.24-1.1,7.95-1.77l0.11-0.02
				l0.03,0.11l1.97,8.64c0.2,0,0.69-0.02,1.52-0.09l0.11-0.01l0.02,0.11c0.54,3.2,0.82,6.27,0.82,9.12c0,9.73-3.14,20.13-3.18,20.23
				L197.59,358.28z M188.35,356.73l9.07,1.28c0.33-1.1,3.13-10.88,3.13-20.06c0-2.8-0.27-5.82-0.79-8.97
				c-1.04,0.08-1.51,0.08-1.53,0.08h-0.1l-0.02-0.1l-1.97-8.63c-4.1,0.59-7.03,1.5-7.66,1.7c0.48,1.17,4.07,10.32,3.31,18.5
				c-0.48,5.47-1.7,10.42-2.63,13.61C188.77,355.48,188.46,356.39,188.35,356.73z"/>
		</g>
		<g>
			<polygon class="st14" points="205.48,327.01 206.02,335.07 208.84,335.04 208.59,326.96 			"/>
			<path class="st13" d="M205.9,335.2l-0.56-8.31l3.37-0.06l0.26,8.34L205.9,335.2z M205.61,327.14l0.53,7.81l2.58-0.03l-0.25-7.83
				L205.61,327.14z"/>
		</g>
		<g>
			<path class="st11" d="M235.41,356.83l-9.33,1.31c0,0-3.17-10.37-3.17-20.2c0-3.03,0.32-6.16,0.82-9.1
				c1.13,0.09,1.63,0.09,1.63,0.09l1.99-8.74c4.76,0.68,7.92,1.77,7.92,1.77s-4.17,9.78-3.35,18.57c0.5,5.62,1.77,10.64,2.63,13.59
				C235.05,355.84,235.41,356.83,235.41,356.83z"/>
			<path class="st13" d="M225.99,358.28l-0.03-0.1c-0.03-0.1-3.18-10.5-3.18-20.23c0-2.85,0.28-5.92,0.82-9.12l0.02-0.11l0.11,0.01
				c0.83,0.07,1.32,0.08,1.52,0.09l2-8.75l0.11,0.02c4.71,0.67,7.92,1.76,7.95,1.77l0.13,0.04l-0.05,0.12
				c-0.04,0.1-4.14,9.86-3.34,18.51c0.48,5.45,1.69,10.38,2.62,13.56c0.49,1.7,0.85,2.7,0.86,2.71l0.05,0.15L225.99,358.28z
				 M223.83,328.98c-0.53,3.15-0.79,6.17-0.79,8.97c0,9.18,2.81,18.96,3.13,20.06l9.07-1.28c-0.12-0.34-0.42-1.25-0.81-2.58
				c-0.93-3.19-2.15-8.14-2.63-13.61c-0.76-8.18,2.83-17.33,3.31-18.5c-0.63-0.2-3.56-1.11-7.66-1.7l-1.99,8.73h-0.1
				C225.33,329.06,224.87,329.06,223.83,328.98z"/>
		</g>
		<path class="st13" d="M200.24,368.49c-0.06-0.03-1.6-0.67-4.13-3.05c-2.54-2.39-3.38-4.69-3.39-4.71l0.24-0.08
			c0.01,0.02,0.83,2.27,3.33,4.61c2.5,2.35,4.04,3,4.05,3L200.24,368.49z"/>
		<path class="st13" d="M210.73,369.53c-0.02-0.01-2.24-1.02-4.28-2.95c-2.48-2.36-3.5-4.48-3.51-4.5l0.23-0.11
			c0.01,0.02,1.02,2.1,3.46,4.43c2,1.91,4.19,2.9,4.21,2.91L210.73,369.53z"/>
		<path class="st13" d="M221.28,368.84c-0.06-0.02-1.51-0.47-3.65-2.19c-2.45-1.96-3.54-4.19-3.55-4.21l0.22-0.11
			c0.01,0.02,1.08,2.2,3.48,4.13c2.1,1.68,3.55,2.14,3.57,2.15L221.28,368.84z"/>
		<path class="st13" d="M229.99,366.69c-0.06-0.02-1.47-0.41-3.07-1.75c-1.92-1.6-2.3-2.83-2.32-2.88l0.24-0.07
			c0,0.01,0.38,1.21,2.24,2.76c1.56,1.3,2.96,1.69,2.98,1.7L229.99,366.69z"/>
		<g>
			<polygon class="st14" points="218.11,327.01 217.56,335.07 214.74,335.04 214.99,326.96 			"/>
			<path class="st13" d="M217.68,335.2l-3.07-0.03l0.26-8.34l3.37,0.06L217.68,335.2z M214.87,334.92l2.58,0.03l0.53-7.81
				l-2.86-0.05L214.87,334.92z"/>
		</g>
		<path class="st14" d="M243.11,358.28c0,0-10.78,4.57-31.34,4.57c-20.51,0-31.29-4.57-31.29-4.57l8.56-4.17
			c-0.5,1.72-0.86,2.72-0.86,2.72l9.33,1.31c0,0,3.71,1.31,10.55,1.68v-11.19c0,0,0-4.3,3.71-4.35h0.05
			c3.71,0.05,3.71,4.35,3.71,4.35v11.19c6.84-0.36,10.55-1.68,10.55-1.68l9.33-1.31c0,0-0.36-1-0.86-2.72L243.11,358.28z"/>
		<path class="st13" d="M211.77,369.55c-22.76,0-31.31-11.08-31.39-11.19l-0.09-0.12l0.14-0.07l8.81-4.29l-0.08,0.27
			c-0.39,1.33-0.69,2.24-0.81,2.58l9.18,1.29c0.06,0.02,3.75,1.3,10.41,1.67v-11.05c0-0.04,0.04-4.43,3.84-4.47h0.05
			c3.79,0.05,3.84,4.43,3.84,4.47v11.05c6.65-0.37,10.35-1.65,10.38-1.66l9.2-1.3c-0.12-0.34-0.42-1.25-0.81-2.58l-0.08-0.27
			l8.95,4.36l-0.09,0.12C243.12,358.47,234.57,369.55,211.77,369.55z M180.67,358.33c0.99,1.2,9.75,10.97,31.1,10.97
			c21.39,0,30.15-9.77,31.14-10.97l-8.17-3.97c0.45,1.53,0.78,2.43,0.78,2.44l0.05,0.15l-9.48,1.33c-0.01,0.01-3.78,1.32-10.56,1.68
			l-0.13,0.01v-11.32c0-0.17-0.04-4.18-3.59-4.22h-0.04c-3.55,0.04-3.59,4.05-3.59,4.22v11.32l-0.13-0.01
			c-6.78-0.36-10.55-1.67-10.59-1.68l-9.46-1.33l0.05-0.15c0-0.01,0.33-0.91,0.78-2.44L180.67,358.33z"/>
		<g>
			<g>
				<path class="st8" d="M111.69,79.74h20.85c-2.71,9.02-7.54,16.11-14.49,21.26c-6.95,5.15-15.14,7.73-24.57,7.73
					c-5.19,0-10.01-0.8-14.47-2.39c-4.46-1.59-8.5-3.97-12.13-7.12c-4.37-3.87-7.7-8.3-9.99-13.3c-2.29-5-3.44-10.38-3.44-16.15
					c0-5.79,1.14-11.19,3.41-16.17c2.27-4.99,5.61-9.43,10.02-13.33c3.63-3.12,7.67-5.47,12.13-7.07c4.46-1.59,9.28-2.39,14.47-2.39
					c4.13,0,7.95,0.69,11.44,2.06c3.49,1.38,6.51,3.4,9.06,6.08v-6.71h17.49v28.89h-18.97c-1.56-4-3.89-7.05-6.99-9.15
					c-3.1-2.1-6.84-3.16-11.21-3.16c-5.93,0-10.78,1.95-14.54,5.85c-3.76,3.9-5.64,8.93-5.64,15.1c0,6.01,1.84,10.97,5.54,14.9
					c3.7,3.93,8.34,5.9,13.93,5.9c4.07,0,7.59-0.89,10.58-2.67C107.15,86.13,109.66,83.4,111.69,79.74z"/>
				<path class="st2" d="M93.49,110.43c-5.35,0-10.41-0.84-15.04-2.49c-4.63-1.65-8.9-4.16-12.67-7.44
					c-4.55-4.02-8.05-8.69-10.42-13.87c-2.38-5.2-3.59-10.87-3.59-16.86c0-6.02,1.2-11.69,3.56-16.87
					c2.36-5.18,5.87-9.85,10.44-13.89c3.79-3.26,8.06-5.74,12.69-7.4c4.62-1.65,9.68-2.49,15.04-2.49c4.33,0,8.39,0.73,12.06,2.18
					c2.45,0.96,4.71,2.25,6.74,3.83v-4.58h20.89v32.28h-21.83l-0.42-1.08c-1.43-3.66-3.57-6.47-6.36-8.37
					c-2.8-1.9-6.26-2.87-10.26-2.87c-5.5,0-9.86,1.74-13.32,5.33c-3.48,3.6-5.17,8.15-5.17,13.92c0,5.61,1.66,10.1,5.08,13.74
					c3.4,3.61,7.55,5.36,12.7,5.36c3.74,0,7-0.82,9.71-2.43c2.71-1.61,5.03-4.14,6.91-7.53l0.48-0.88h24.13l-0.66,2.19
					c-2.8,9.33-7.89,16.78-15.11,22.13C111.84,107.71,103.24,110.43,93.49,110.43z M93.49,32.52c-4.97,0-9.64,0.77-13.9,2.29
					c-4.23,1.51-8.13,3.79-11.6,6.75c-4.19,3.71-7.42,8-9.58,12.74c-2.16,4.74-3.26,9.94-3.26,15.46c0,5.49,1.1,10.69,3.28,15.44
					c2.17,4.75,5.39,9.04,9.57,12.73c3.44,2.99,7.34,5.28,11.58,6.79c4.26,1.53,8.94,2.3,13.9,2.3c9.01,0,16.93-2.49,23.56-7.4
					c6.05-4.49,10.47-10.6,13.16-18.2h-17.53c-2.09,3.48-4.65,6.15-7.64,7.92c-3.23,1.93-7.09,2.91-11.45,2.91
					c-6.05,0-11.16-2.17-15.17-6.43c-3.98-4.24-6-9.64-6-16.07c0-6.59,2.06-12.07,6.12-16.28c4.08-4.22,9.38-6.37,15.77-6.37
					c4.7,0,8.79,1.16,12.17,3.45c3.09,2.09,5.5,5.07,7.17,8.86h16.14V33.94h-14.1v9.26l-2.93-3.08c-2.36-2.49-5.2-4.4-8.45-5.67
					C101.03,33.17,97.39,32.52,93.49,32.52z"/>
			</g>
			<g>
				<path class="st8" d="M136.05,107.25v-15h7.53V47.24h-7.53v-15h35.09l11.69,30.87l11.14-30.87h35.19v15h-7.58v45.01h7.58v15
					h-34.48v-15h7.93V50.7l-15.41,40.74h-9.31L162.5,50.7v41.55h8.04v15H136.05z"/>
				<path class="st2" d="M230.87,108.95h-37.88v-18.4h7.93V59.99l-12.53,33.14h-11.66l-12.54-33.15v30.57h8.04v18.4h-37.88v-18.4
					h7.53V48.94h-7.53v-18.4h37.96l10.48,27.67l9.99-27.67h38.08v18.4h-7.58v41.61h7.58V108.95z M196.39,105.56h31.08v-11.6h-7.58
					V45.55h7.58v-11.6h-32.3l-12.29,34.06l-12.9-34.06h-32.22v11.6h7.53v48.41h-7.53v11.6h31.09v-11.6h-8.04V41.42l18.28,48.33h6.96
					l18.28-48.33v52.54h-7.93V105.56z"/>
			</g>
			<g>
				<path class="st8" d="M234.15,107.25v-15h7.62V47.24h-7.62v-15h38.45c7.83,0,14.03,2.13,18.59,6.4s6.84,10.06,6.84,17.34
					c0,7.32-2.28,13.11-6.84,17.37s-10.76,6.38-18.59,6.38h-11.34v12.51h7.88v15H234.15z M261.26,47.24V65.7h5.19c4,0,7-0.77,9-2.31
					c2-1.54,3-3.86,3-6.94c0-3.09-1-5.4-3-6.92c-2-1.53-5-2.29-9-2.29H261.26z"/>
				<path class="st2" d="M270.84,108.95h-38.39v-18.4h7.62V48.94h-7.62v-18.4h40.15c8.24,0,14.89,2.31,19.75,6.86
					c4.9,4.59,7.38,10.84,7.38,18.58c0,7.78-2.48,14.04-7.38,18.61c-4.86,4.54-11.51,6.84-19.75,6.84h-9.64v9.12h7.88V108.95z
					 M235.85,105.56h31.59v-11.6h-7.88V78.04h13.04c7.35,0,13.22-1.99,17.43-5.93c4.24-3.95,6.3-9.23,6.3-16.12
					c0-6.86-2.06-12.13-6.3-16.11c-4.21-3.94-10.07-5.94-17.43-5.94h-36.75v11.6h7.62v48.41h-7.62V105.56z M266.45,67.4h-6.89V45.55
					h6.89c4.43,0,7.71,0.86,10.03,2.64c2.43,1.85,3.67,4.63,3.67,8.27c0,3.62-1.23,6.41-3.66,8.28
					C274.16,66.53,270.87,67.4,266.45,67.4z M262.96,64.01h3.49c3.6,0,6.28-0.66,7.97-1.96c1.57-1.22,2.34-3.04,2.34-5.59
					c0-2.55-0.76-4.37-2.33-5.56c-1.69-1.29-4.37-1.95-7.98-1.95h-3.49V64.01z"/>
			</g>
			<g>
				<path class="st8" d="M292.74,107.25v-15h6.36l13.93-45.01h-7.37v-15h52.79v15h-7.27l13.83,45.01h6.46v15h-32.8v-15h6.66
					l-3-10.12h-20.55l-2.79,10.12h6.56v15H292.74z M324.83,68.81h14.5L332,45.06L324.83,68.81z"/>
				<path class="st2" d="M373.16,108.95h-36.2v-18.4h6.09l-1.99-6.73h-17.99l-1.86,6.73h6.03v18.4h-36.2v-18.4h6.81l12.88-41.61
					h-6.77v-18.4h56.18v18.4h-6.67l12.79,41.61h6.9V108.95z M340.36,105.56h29.41v-11.6h-6.01l-14.88-48.41h7.87v-11.6h-49.39v11.6
					h7.98l-14.98,48.41h-5.91v11.6h29.41v-11.6h-7.1l3.73-13.52h23.11l4.01,13.52h-7.24V105.56z M341.63,70.51h-19.08l9.44-31.26
					L341.63,70.51z M327.11,67.11h9.91l-5-16.23L327.11,67.11z"/>
			</g>
		</g>
	</g>
</g>
</svg>
