<?xml version="1.0" encoding="utf-8"?>
<svg version="1.1" id="Layer_1" xmlns="http://www.w3.org/2000/svg" xmlns:xlink="http://www.w3.org/1999/xlink" x="0px" y="0px"
	 viewBox="0 0 24 24" style="enable-background:new 0 0 24 24;" xml:space="preserve">
<style type="text/css">
	.st0{fill:none;}
	.st1{fill:#80B40A;}
	.st2{fill:#66430D;}
</style>
<path class="st0" d="M0,0h24v24H0V0z"/>
<path class="st1" d="M15,8v1.1c0,1,0.8,1.9,1.9,1.9h3.2c1,0,1.9-0.8,1.9-1.9V4.9c0-1-0.8-1.9-1.9-1.9h-3.2c-1,0-1.9,0.8-1.9,1.9V6
	 M15,18v1.1c0,1,0.8,1.9,1.9,1.9h3.2c1,0,1.9-0.8,1.9-1.9v-4.2c0-1-0.8-1.9-1.9-1.9h-3.2c-1,0-1.9,0.8-1.9,1.9V16 M9,6V4.9
	C9,3.8,8.2,3,7.1,3H3.9C2.8,3,2,3.8,2,4.9v4.2c0,1,0.8,1.9,1.9,1.9h3.2c1,0,1.9-0.8,1.9-1.9V8"/>
<path class="st2" d="M9,8h2v10h4v-2h-2V8h2V6H9V8z"/>
</svg>
